<?xml version="1.0" standalone="no"?>
<!DOCTYPE svg PUBLIC "-//W3C//DTD SVG 20010904//EN"
 "http://www.w3.org/TR/2001/REC-SVG-20010904/DTD/svg10.dtd">
<svg version="1.0" xmlns="http://www.w3.org/2000/svg"
 width="512.000000pt" height="512.000000pt" viewBox="0 0 512.000000 512.000000"
 preserveAspectRatio="xMidYMid meet">
<metadata>
Created by potrace 1.16, written by Peter Selinger 2001-2019
</metadata>
<g transform="translate(0.000000,512.000000) scale(0.100000,-0.100000)"
fill="rgba(252, 116, 45)" stroke="none">
<path d="M2375 4464 c-315 -34 -540 -95 -790 -213 -303 -144 -580 -388 -745
-656 -366 -595 -241 -1335 305 -1817 324 -286 734 -456 1222 -506 l71 -7 -64
-78 c-72 -86 -179 -181 -297 -264 -85 -60 -107 -91 -107 -153 0 -32 7 -48 34
-77 30 -33 39 -37 93 -41 33 -2 104 1 159 7 578 63 1036 338 1284 772 36 62
52 81 89 100 26 13 91 54 146 91 352 235 593 570 681 948 51 219 42 472 -26
695 -185 604 -789 1071 -1530 1180 -102 15 -444 27 -525 19z m464 -270 c704
-93 1266 -553 1376 -1128 20 -102 21 -298 1 -397 -63 -328 -267 -619 -580
-830 -49 -33 -112 -72 -140 -86 -86 -43 -112 -69 -159 -158 -116 -218 -313
-407 -542 -522 -55 -28 -245 -103 -260 -103 -4 0 11 21 34 46 55 63 152 206
190 281 34 69 39 118 16 163 -25 48 -61 60 -183 60 -456 0 -877 136 -1197 385
-216 169 -385 402 -455 628 -70 227 -69 470 4 683 188 552 795 956 1491 993
153 8 261 4 404 -15z"/>
<path d="M1603 3290 c-58 -35 -78 -101 -48 -164 34 -70 -30 -66 1005 -66 860
0 934 1 961 17 56 33 75 112 39 170 -40 67 17 63 -1002 63 -898 0 -924 -1
-955 -20z"/>
<path d="M1611 2562 c-38 -20 -71 -73 -71 -112 0 -39 33 -92 71 -112 32 -17
82 -18 949 -18 867 0 917 1 949 18 38 20 71 73 71 112 0 39 -33 92 -71 112
-32 17 -82 18 -949 18 -867 0 -917 -1 -949 -18z"/>
</g>
</svg>
