<?xml version="1.0" standalone="no"?>
<!DOCTYPE svg PUBLIC "-//W3C//DTD SVG 20010904//EN"
 "http://www.w3.org/TR/2001/REC-SVG-20010904/DTD/svg10.dtd">
<svg version="1.0" xmlns="http://www.w3.org/2000/svg"
 width="500.000000pt" height="500.000000pt" viewBox="0 0 500.000000 500.000000"
 preserveAspectRatio="xMidYMid meet">

<g transform="translate(0.000000,500.000000) scale(0.100000,-0.100000)"
fill="rgba(252, 116, 45)" stroke="none">
<path d="M2428 4136 c-21 -8 -49 -21 -63 -30 -36 -24 -83 -92 -96 -140 -30
-112 36 -244 144 -285 l27 -11 0 -279 0 -280 -577 -3 -578 -3 -44 -23 c-55
-30 -103 -78 -133 -133 -21 -41 -23 -59 -28 -254 l-5 -210 -80 -5 c-107 -7
-162 -38 -199 -112 l-26 -52 0 -353 c0 -385 2 -397 58 -456 43 -45 81 -61 167
-66 l80 -6 3 -180 c2 -177 3 -181 32 -241 20 -42 45 -73 77 -98 90 -70 18 -67
1339 -64 l1189 3 51 27 c57 30 103 77 136 141 21 38 23 59 26 230 l4 187 66 0
c76 0 132 22 174 66 57 61 58 72 58 458 l0 354 -28 53 c-38 73 -104 109 -202
109 l-68 0 -4 208 c-3 192 -5 210 -26 249 -33 64 -79 111 -136 141 l-51 27
-572 3 -573 3 0 278 0 278 40 18 c53 24 116 93 129 141 6 22 11 62 11 89 -1
158 -171 275 -322 221z m132 -131 c34 -17 60 -62 60 -100 0 -101 -130 -151
-194 -74 -33 39 -41 72 -26 108 29 70 97 98 160 66z m1127 -1036 c38 -14 71
-47 92 -89 16 -32 17 -104 16 -910 l-2 -875 -24 -38 c-13 -20 -42 -46 -65 -57
-40 -20 -62 -20 -1200 -20 -1109 0 -1161 1 -1200 19 -23 10 -52 34 -65 52
l-24 34 0 897 c0 894 0 897 21 925 11 15 38 38 60 50 l39 23 1162 0 c799 0
1170 -3 1190 -11z m-2612 -1009 l0 -385 -49 -3 c-128 -8 -127 -12 -124 404 l3
336 24 19 c19 16 37 19 85 17 l61 -3 0 -385z m2996 371 l24 -19 3 -329 c2
-180 0 -338 -3 -351 -11 -45 -40 -62 -105 -62 l-60 0 0 390 0 390 59 0 c43 0
65 -5 82 -19z"/>
<path d="M1720 2564 c-289 -104 -303 -499 -22 -627 37 -17 66 -21 132 -21 106
1 158 22 233 96 165 161 118 432 -91 535 -69 34 -184 42 -252 17z m223 -150
c148 -103 96 -339 -82 -369 -138 -23 -263 110 -231 245 33 140 197 204 313
124z"/>
<path d="M1779 2325 c-54 -29 -58 -108 -7 -150 38 -32 78 -32 117 1 26 21 31
33 31 69 0 75 -74 117 -141 80z"/>
<path d="M3063 2562 c-56 -20 -130 -75 -163 -122 -11 -16 -30 -55 -40 -86 -55
-159 16 -332 167 -406 59 -29 77 -33 149 -33 73 0 88 3 149 35 128 65 193 179
183 321 -9 122 -86 232 -196 282 -66 29 -181 33 -249 9z m192 -131 c140 -65
166 -237 52 -338 -86 -75 -208 -66 -285 21 -67 77 -67 185 1 263 61 69 153 91
232 54z"/>
<path d="M3108 2310 c-27 -27 -30 -36 -25 -73 9 -69 71 -103 133 -73 60 28 72
100 25 147 -41 41 -91 40 -133 -1z"/>
<path d="M2003 1679 c-18 -5 -44 -25 -60 -46 l-28 -36 0 -197 c0 -217 3 -231
68 -270 31 -19 54 -20 517 -20 451 0 488 1 519 18 64 34 71 63 71 273 0 177
-1 188 -23 220 -47 70 -38 69 -562 68 -258 0 -484 -5 -502 -10z m955 -281 l3
-158 -456 0 -455 0 0 160 0 160 453 -2 452 -3 3 -157z"/>
</g>
</svg>
